<svg style="cursor: pointer; margin-bottom: -3px;" width="170px" height="34px" viewBox="0 0 170 34" version="1.1" xmlns="http://www.w3.org/2000/svg" xmlns:xlink="http://www.w3.org/1999/xlink">
    <!-- Generator: Sketch 53.2 (72643) - https://sketchapp.com -->
    <title>Artboard</title>
    <desc>Created with Sketch.</desc>
    <g style="cursor: pointer; " id="Artboard" stroke="none" stroke-width="1" fill="none" fill-rule="evenodd">
        <rect id="Rectangle" fill="var(--accent-color)" x="0" y="4" width="170" height="30" rx="8"></rect>
        <g id="Group" transform="translate(10.000000, 11.000000)" fill-rule="nonzero">
            <path d="M17.417931,-1.74615877e-12 L19.0255476,-1.74615877e-12 C22.126324,-1.74672838e-12 24.64,2.51367595 24.64,5.61445238 L24.64,5.94446654 C24.64,9.04524297 22.126324,11.5589189 19.0255476,11.5589189 L17.417931,11.5589189 L17.417931,13.2487143 C17.417931,14.6798419 16.2577729,15.84 14.8266453,15.84 L2.59128571,15.84 C1.16015813,15.84 -2.90320252e-13,14.6798419 -2.91766611e-13,13.2487143 L-2.91544566e-13,1.29564286 C-2.91632198e-13,0.580079066 0.580079066,-1.74624937e-12 1.29564286,-1.74638082e-12 L17.417931,-1.74615877e-12 Z M17.417931,2.99675676 L17.417931,8.56216216 L18.8835042,8.56216216 C20.4203485,8.56216216 21.6662069,7.31630373 21.6662069,5.77945946 C21.6662069,4.24261519 20.4203485,2.99675676 18.8835042,2.99675676 L17.417931,2.99675676 Z" id="Rectangle-2" fill="#FFFFFF"></path>
            <path d="M8.36,5.27684576 C8.76029424,4.10561525 9.70894135,3.52 11.2059413,3.52 C13.4514413,3.52 14.2839059,6.3136503 13.106875,8.14 C12.3221877,9.35756646 10.7398961,10.8975665 8.36,12.76 C5.98010394,10.8975665 4.39781228,9.35756646 3.61312502,8.14 C2.43609412,6.3136503 3.26855871,3.52 5.51405867,3.52 C7.01105865,3.52 7.95970576,4.10561525 8.36,5.27684576 Z" id="Path-2" fill="#FF5E5B"></path>
        </g>
 <text fill="white" style="font-family: var(--header-font); font-size: 16px;" y="24" x="45">Leave a Tip on Ko-Fi</text>
</g>
</svg>