<svg width="24" height="24" viewBox="0 0 507 355" version="1.1" xmlns="http://www.w3.org/2000/svg" xmlns:xlink="http://www.w3.org/1999/xlink" xml:space="preserve" xmlns:serif="http://www.serif.com/" style="fill-rule:evenodd;clip-rule:evenodd;stroke-linejoin:round;stroke-miterlimit:2;">
	<g>
		<path d="M202.471,253.096l-0,-151.858l131.508,75.929l-131.508,75.929Zm293.137,-197.767c-5.82,-21.779 -22.971,-38.929 -44.75,-44.75c-39.479,-10.579 -197.766,-10.579 -197.766,-10.579c-0,-0 -158.288,-0 -197.767,10.579c-21.775,5.821 -38.929,22.971 -44.75,44.75c-10.575,39.475 -10.575,121.838 -10.575,121.838c-0,-0 -0,82.362 10.575,121.833c5.821,21.779 22.975,38.933 44.75,44.754c39.479,10.575 197.767,10.575 197.767,10.575c-0,0 158.287,0 197.766,-10.575c21.779,-5.821 38.93,-22.975 44.75,-44.754c10.58,-39.471 10.58,-121.833 10.58,-121.833c-0,-0 -0,-82.363 -10.58,-121.838Z" style="fill:var(--accent-color);fill-rule:nonzero;"/>
	</g>
</svg>